<?xml version="1.0" standalone="no"?>
<svg xmlns:xlink="http://www.w3.org/1999/xlink" id="wave" style="transform:rotate(0deg); transition: 0.3s" viewBox="0 0 1440 190" version="1.1" xmlns="http://www.w3.org/2000/svg"><defs><linearGradient id="sw-gradient-0" x1="0" x2="0" y1="1" y2="0"><stop stop-color="rgba(236.613, 62, 243, 1)" offset="0%"/><stop stop-color="rgba(255, 230.548, 11, 1)" offset="100%"/></linearGradient></defs><path style="transform:translate(0, 0px); opacity:1" fill="url(#sw-gradient-0)" d="M0,133L48,114C96,95,192,57,288,38C384,19,480,19,576,25.3C672,32,768,44,864,60.2C960,76,1056,95,1152,88.7C1248,82,1344,51,1440,47.5C1536,44,1632,70,1728,69.7C1824,70,1920,44,2016,53.8C2112,63,2208,108,2304,133C2400,158,2496,165,2592,167.8C2688,171,2784,171,2880,152C2976,133,3072,95,3168,69.7C3264,44,3360,32,3456,22.2C3552,13,3648,6,3744,15.8C3840,25,3936,51,4032,53.8C4128,57,4224,38,4320,34.8C4416,32,4512,44,4608,47.5C4704,51,4800,44,4896,53.8C4992,63,5088,89,5184,98.2C5280,108,5376,101,5472,98.2C5568,95,5664,95,5760,107.7C5856,120,5952,146,6048,155.2C6144,165,6240,158,6336,129.8C6432,101,6528,51,6624,41.2C6720,32,6816,63,6864,79.2L6912,95L6912,190L6864,190C6816,190,6720,190,6624,190C6528,190,6432,190,6336,190C6240,190,6144,190,6048,190C5952,190,5856,190,5760,190C5664,190,5568,190,5472,190C5376,190,5280,190,5184,190C5088,190,4992,190,4896,190C4800,190,4704,190,4608,190C4512,190,4416,190,4320,190C4224,190,4128,190,4032,190C3936,190,3840,190,3744,190C3648,190,3552,190,3456,190C3360,190,3264,190,3168,190C3072,190,2976,190,2880,190C2784,190,2688,190,2592,190C2496,190,2400,190,2304,190C2208,190,2112,190,2016,190C1920,190,1824,190,1728,190C1632,190,1536,190,1440,190C1344,190,1248,190,1152,190C1056,190,960,190,864,190C768,190,672,190,576,190C480,190,384,190,288,190C192,190,96,190,48,190L0,190Z"/></svg>