<?xml version="1.0" standalone="no"?>
<svg xmlns:xlink="http://www.w3.org/1999/xlink" id="wave" style="transform:rotate(180deg); transition: 0.3s" viewBox="0 0 1440 300" version="1.1" xmlns="http://www.w3.org/2000/svg"><defs><linearGradient id="sw-gradient-0" x1="0" x2="0" y1="1" y2="0"><stop stop-color="rgba(62, 243, 212.344, 1)" offset="0%"/><stop stop-color="rgba(11, 221.939, 255, 1)" offset="100%"/></linearGradient></defs><path style="transform:translate(0, 0px); opacity:1" fill="url(#sw-gradient-0)" d="M0,210L120,180C240,150,480,90,720,60C960,30,1200,30,1440,40C1680,50,1920,70,2160,95C2400,120,2640,150,2880,140C3120,130,3360,80,3600,75C3840,70,4080,110,4320,110C4560,110,4800,70,5040,85C5280,100,5520,170,5760,210C6000,250,6240,260,6480,265C6720,270,6960,270,7200,240C7440,210,7680,150,7920,110C8160,70,8400,50,8640,35C8880,20,9120,10,9360,25C9600,40,9840,80,10080,85C10320,90,10560,60,10800,55C11040,50,11280,70,11520,75C11760,80,12000,70,12240,85C12480,100,12720,140,12960,155C13200,170,13440,160,13680,155C13920,150,14160,150,14400,170C14640,190,14880,230,15120,245C15360,260,15600,250,15840,205C16080,160,16320,80,16560,65C16800,50,17040,100,17160,125L17280,150L17280,300L17160,300C17040,300,16800,300,16560,300C16320,300,16080,300,15840,300C15600,300,15360,300,15120,300C14880,300,14640,300,14400,300C14160,300,13920,300,13680,300C13440,300,13200,300,12960,300C12720,300,12480,300,12240,300C12000,300,11760,300,11520,300C11280,300,11040,300,10800,300C10560,300,10320,300,10080,300C9840,300,9600,300,9360,300C9120,300,8880,300,8640,300C8400,300,8160,300,7920,300C7680,300,7440,300,7200,300C6960,300,6720,300,6480,300C6240,300,6000,300,5760,300C5520,300,5280,300,5040,300C4800,300,4560,300,4320,300C4080,300,3840,300,3600,300C3360,300,3120,300,2880,300C2640,300,2400,300,2160,300C1920,300,1680,300,1440,300C1200,300,960,300,720,300C480,300,240,300,120,300L0,300Z"/></svg>